<?xml version="1.0" standalone="no"?>
<!DOCTYPE svg PUBLIC "-//W3C//DTD SVG 20010904//EN"
 "http://www.w3.org/TR/2001/REC-SVG-20010904/DTD/svg10.dtd">
<svg version="1.0" xmlns="http://www.w3.org/2000/svg"
 width="626.000000pt" height="626.000000pt" viewBox="0 0 626.000000 626.000000"
 preserveAspectRatio="xMidYMid meet">

<g transform="translate(0.000000,626.000000) scale(0.100000,-0.100000)"
fill="#000000" stroke="none">
<path d="M2560 4125 l-574 -251 -9 -40 c-11 -49 -3 -139 15 -165 7 -11 130
-93 273 -183 l260 -163 6 -164 c3 -90 7 -181 8 -201 1 -28 10 -46 36 -72 44
-45 176 -109 277 -135 154 -40 385 -50 429 -19 11 8 11 9 -2 5 -14 -5 -17 9
-22 101 -3 59 -10 119 -16 135 l-11 27 -47 -30 -48 -29 -9 45 c-10 53 0 166
17 187 7 8 154 100 327 204 902 544 816 491 807 499 -5 5 -1088 481 -1127 496
-8 3 -274 -108 -590 -247z"/>
<path d="M3520 3182 l-216 -136 14 -65 c8 -39 12 -108 10 -168 -2 -55 -1 -98
2 -93 3 4 41 17 85 29 106 29 235 92 285 140 l40 38 0 84 c0 46 3 135 7 197 3
65 2 112 -3 111 -5 0 -106 -62 -224 -137z"/>
<path d="M3260 3090 c-9 -6 -10 -10 -3 -10 6 0 15 5 18 10 8 12 4 12 -15 0z"/>
<path d="M3193 3073 c-15 -5 -17 -23 -4 -23 5 0 11 7 15 15 3 8 4 15 3 14 -1
0 -8 -3 -14 -6z"/>
<path d="M3216 3037 c3 -10 9 -15 12 -12 3 3 0 11 -7 18 -10 9 -11 8 -5 -6z"/>
<path d="M3263 2655 c0 -33 2 -50 4 -37 3 14 9 20 16 15 9 -5 9 -3 0 8 -6 8
-13 28 -16 44 -2 17 -4 3 -4 -30z"/>
<path d="M3321 2678 c-1 -21 -5 -26 -18 -22 -16 5 -16 4 0 -6 24 -15 30 -9 24
27 l-4 28 -2 -27z"/>
<path d="M2795 2385 c-105 -37 -135 -174 -54 -254 47 -47 153 -55 213 -16 l27
18 -21 22 c-21 22 -21 22 -57 4 -82 -42 -162 29 -133 117 19 58 85 80 141 47
27 -16 29 -16 49 2 l22 20 -22 17 c-22 18 -82 38 -110 38 -8 -1 -33 -7 -55
-15z"/>
<path d="M4081 2390 c-18 -4 -50 -24 -69 -44 -31 -31 -36 -42 -39 -93 -3 -46
0 -65 16 -91 31 -48 77 -72 139 -72 61 0 99 17 136 60 21 26 26 42 26 87 0 64
-20 105 -65 133 -38 23 -98 32 -144 20z m108 -77 c42 -40 45 -95 8 -139 -19
-21 -32 -27 -67 -27 -58 0 -90 35 -90 98 0 36 5 47 31 69 40 34 80 34 118 -1z"/>
<path d="M1550 2240 l0 -150 115 0 115 0 0 30 0 30 -80 0 -80 0 0 35 0 35 70
0 c68 0 70 1 70 25 0 24 -2 25 -70 25 l-70 0 0 35 0 35 75 0 c73 0 75 1 75 25
l0 25 -110 0 -110 0 0 -150z"/>
<path d="M1900 2240 l0 -150 87 0 c111 0 164 23 194 83 25 48 22 115 -8 155
-35 47 -79 62 -180 62 l-93 0 0 -150z m162 89 c69 -19 90 -99 39 -150 -25 -24
-37 -29 -80 -29 l-51 0 0 95 0 95 28 0 c15 0 44 -5 64 -11z"/>
<path d="M2310 2290 c0 -154 31 -200 134 -200 109 0 136 39 136 193 l0 107
-35 0 -35 0 0 -103 c0 -111 -7 -132 -50 -142 -18 -4 -34 0 -53 15 -26 21 -27
24 -27 126 l0 104 -35 0 -35 0 0 -100z"/>
<path d="M3112 2248 c-34 -79 -62 -146 -62 -150 0 -5 14 -8 30 -8 25 0 33 6
47 35 17 35 17 35 83 35 66 0 66 0 83 -35 14 -30 22 -35 51 -35 l35 0 -50 113
c-28 61 -58 129 -66 150 -14 33 -19 37 -52 37 l-36 0 -63 -142z m125 12 l21
-50 -48 0 -48 0 21 50 c11 28 24 50 27 50 3 0 16 -22 27 -50z"/>
<path d="M3420 2365 c0 -23 3 -25 50 -25 l50 0 0 -125 0 -125 35 0 35 0 0 125
0 125 49 0 c46 0 48 1 43 25 l-4 25 -129 0 -129 0 0 -25z"/>
<path d="M3780 2240 l0 -150 35 0 35 0 0 150 0 150 -35 0 -35 0 0 -150z"/>
<path d="M4410 2240 l0 -150 35 0 35 0 0 91 0 91 73 -90 c58 -74 77 -91 100
-91 l27 -1 0 150 0 150 -30 0 -30 0 0 -86 c0 -47 -4 -84 -9 -82 -5 2 -39 40
-76 86 -56 68 -72 82 -96 82 l-29 0 0 -150z"/>
<path d="M3773 1899 c-16 -16 -5 -39 17 -39 25 0 35 18 20 35 -15 18 -22 19
-37 4z"/>
<path d="M2113 1885 c-13 -9 -23 -25 -23 -36 0 -10 -4 -19 -10 -19 -5 0 -10
-7 -10 -15 0 -8 5 -15 10 -15 6 0 10 -25 10 -55 0 -48 2 -55 20 -55 18 0 20 7
20 55 0 48 2 55 20 55 11 0 20 7 20 15 0 8 -9 15 -20 15 -28 0 -25 19 6 30 14
6 24 16 22 23 -7 18 -40 20 -65 2z"/>
<path d="M3208 1893 c-12 -3 -18 -14 -18 -33 0 -27 -2 -28 -33 -23 -46 7 -87
-27 -87 -72 0 -41 27 -75 60 -75 14 0 42 0 63 0 l37 1 0 104 c0 58 -1 104 -2
104 -2 -1 -11 -3 -20 -6z m-22 -118 c11 -43 -34 -73 -64 -43 -27 27 -6 68 35
68 16 0 24 -7 29 -25z"/>
<path d="M3650 1850 c0 -11 -4 -20 -10 -20 -5 0 -10 -7 -10 -15 0 -8 4 -15 9
-15 6 0 11 -21 13 -47 3 -40 7 -50 30 -60 26 -13 58 -9 58 8 0 5 -11 14 -25
19 -20 8 -25 16 -25 45 0 28 4 35 20 35 11 0 20 6 20 14 0 7 -9 16 -20 19 -11
3 -20 12 -20 21 0 9 -8 16 -20 16 -13 0 -20 -7 -20 -20z"/>
<path d="M2206 1817 c-31 -31 -33 -65 -6 -100 37 -47 102 -43 136 7 31 48 -1
104 -63 113 -35 5 -45 2 -67 -20z m92 -54 c3 -27 -1 -33 -22 -39 -33 -8 -46 2
-46 35 0 35 8 43 40 39 20 -2 26 -9 28 -35z"/>
<path d="M2380 1765 c0 -68 2 -75 19 -75 17 0 20 8 23 48 2 38 7 49 26 57 12
5 22 18 22 27 0 21 -20 24 -38 6 -9 -9 -12 -9 -12 0 0 7 -9 12 -20 12 -18 0
-20 -7 -20 -75z"/>
<path d="M2595 1815 c-14 -13 -25 -35 -25 -47 0 -52 58 -91 100 -68 16 8 20 8
20 -4 0 -24 -34 -38 -66 -26 -34 13 -54 -7 -27 -27 29 -22 91 -16 118 12 22
22 25 32 25 105 0 73 -2 80 -20 80 -11 0 -20 -5 -20 -10 0 -7 -6 -7 -19 0 -32
16 -60 12 -86 -15z m94 -29 c20 -24 -4 -58 -37 -54 -27 3 -39 25 -28 54 7 18
50 18 65 0z"/>
<path d="M2780 1765 c0 -68 2 -75 20 -75 15 0 20 7 20 29 0 42 17 81 35 81 8
0 15 9 15 20 0 23 -4 24 -31 10 -13 -7 -19 -7 -19 0 0 5 -9 10 -20 10 -18 0
-20 -7 -20 -75z"/>
<path d="M2917 1833 c-11 -3 -16 -10 -13 -20 3 -8 6 -16 6 -19 0 -2 10 0 23 4
29 11 57 4 57 -14 0 -10 -12 -14 -38 -14 -41 0 -62 -14 -62 -41 0 -24 25 -41
57 -40 16 0 43 0 62 0 l34 0 -5 57 c-7 80 -44 107 -121 87z m73 -97 c0 -8 -7
-17 -16 -20 -19 -7 -47 12 -38 25 9 15 54 10 54 -5z"/>
<path d="M3277 1833 c-2 -5 -3 -32 -2 -60 1 -61 19 -85 61 -84 16 0 44 1 62 1
l32 0 0 76 c0 72 -1 75 -22 72 -20 -3 -24 -10 -28 -58 -5 -51 -7 -55 -30 -55
-23 0 -25 4 -28 58 -3 48 -6 57 -22 57 -10 0 -21 -3 -23 -7z"/>
<path d="M3487 1833 c-11 -3 -16 -10 -13 -20 3 -8 6 -17 6 -19 0 -3 9 0 20 6
14 8 26 8 40 0 31 -17 24 -30 -18 -30 -21 0 -43 -5 -50 -12 -26 -26 -4 -70 35
-69 10 1 35 1 56 1 l37 1 0 59 c0 50 -4 61 -22 74 -22 16 -54 19 -91 9z m73
-97 c0 -17 -24 -28 -45 -20 -29 12 -14 34 22 34 13 0 23 -6 23 -14z"/>
<path d="M3770 1765 c0 -68 2 -75 20 -75 18 0 20 7 20 75 0 68 -2 75 -20 75
-18 0 -20 -7 -20 -75z"/>
<path d="M3874 1817 c-49 -42 -29 -118 34 -130 82 -16 135 71 77 128 -31 32
-75 32 -111 2z m86 -37 c22 -40 -26 -80 -58 -48 -13 13 -16 50 -5 61 14 14 53
6 63 -13z"/>
<path d="M4040 1765 c0 -68 2 -75 20 -75 16 0 20 7 20 38 0 46 19 76 46 70 15
-2 20 -13 22 -56 3 -48 5 -52 28 -52 21 0 24 4 24 39 0 87 -39 128 -96 102
-15 -6 -24 -7 -24 -1 0 6 -9 10 -20 10 -18 0 -20 -7 -20 -75z"/>
</g>
</svg>
